<svg width="48" height="48" viewBox="0 0 48 48" fill="none" xmlns="http://www.w3.org/2000/svg">
<path opacity="1" d="M16.4562 23.456C16.7566 23.1556 17.2436 23.1557 17.544 23.4562C17.8444 23.7566 17.8443 24.2436 17.5438 24.544L16.4562 23.456ZM14.9994 26L15.5433 26.544C15.399 26.6882 15.2033 26.7693 14.9993 26.7692C14.7953 26.7692 14.5996 26.6881 14.4554 26.5438L14.9994 26ZM12.456 24.5438C12.1556 24.2434 12.1557 23.7564 12.4562 23.456C12.7566 23.1556 13.2436 23.1557 13.544 23.4562L12.456 24.5438ZM17.5438 24.544L15.5433 26.544L14.4556 25.456L16.4562 23.456L17.5438 24.544ZM14.4554 26.5438L12.456 24.5438L13.544 23.4562L15.5434 25.4562L14.4554 26.5438Z" fill="white"/>
<path opacity="1" fill-rule="evenodd" clip-rule="evenodd" d="M24.0141 15.5385C19.3317 15.5385 15.5363 19.3392 15.5363 24.0282C15.5363 24.4875 15.5766 24.9383 15.6505 25.3803C15.7204 25.7985 15.4766 26.2164 15.0658 26.3217C14.6546 26.4271 14.2327 26.1793 14.1574 25.7616C14.0565 25.2017 14 24.6233 14 24.0282C14 18.4896 18.4832 14 24.0141 14C29.5298 14 34 18.4765 34 24C34 29.5235 29.5298 34 24.0141 34C22.0302 34 20.2015 33.4025 18.6577 32.4101C18.3009 32.1807 18.2338 31.6966 18.4882 31.3572C18.7432 31.0171 19.224 30.9517 19.5845 31.1769C20.8777 31.9848 22.3871 32.4615 24.0141 32.4615C28.6813 32.4615 32.4637 28.6738 32.4637 24C32.4637 19.3262 28.6813 15.5385 24.0141 15.5385Z" fill="white"/>
<path opacity="1" d="M22.635 27V21.664H21.643L19.963 23.352L20.611 24.032L21.491 23.128V27H22.635ZM23.4361 24.336C23.4361 25.712 24.1161 27.096 25.6441 27.096C27.1641 27.096 27.8521 25.712 27.8521 24.336C27.8521 22.96 27.1641 21.584 25.6441 21.584C24.1161 21.584 23.4361 22.96 23.4361 24.336ZM26.6921 24.336C26.6921 25.32 26.4041 26.088 25.6441 26.088C24.8761 26.088 24.5881 25.32 24.5881 24.336C24.5881 23.352 24.8761 22.592 25.6441 22.592C26.4041 22.592 26.6921 23.352 26.6921 24.336Z" fill="white"/>
</svg>
