<svg width="48" height="48" viewBox="0 0 48 48" fill="none" xmlns="http://www.w3.org/2000/svg">
<path opacity="1" d="M32.4562 23.456C32.7566 23.1556 33.2436 23.1557 33.544 23.4562C33.8444 23.7566 33.8443 24.2436 33.5438 24.544L32.4562 23.456ZM30.9994 26L31.5433 26.544C31.399 26.6882 31.2033 26.7693 30.9993 26.7692C30.7953 26.7692 30.5996 26.6881 30.4554 26.5438L30.9994 26ZM28.456 24.5438C28.1556 24.2434 28.1557 23.7564 28.4562 23.456C28.7566 23.1556 29.2436 23.1557 29.544 23.4562L28.456 24.5438ZM33.5438 24.544L31.5433 26.544L30.4556 25.456L32.4562 23.456L33.5438 24.544ZM30.4554 26.5438L28.456 24.5438L29.544 23.4562L31.5434 25.4562L30.4554 26.5438Z" fill="white"/>
<path opacity="1" fill-rule="evenodd" clip-rule="evenodd" d="M21.9859 15.5385C26.6683 15.5385 30.4637 19.3392 30.4637 24.0282C30.4637 24.4875 30.4234 24.9383 30.3495 25.3803C30.2796 25.7985 30.5234 26.2164 30.9342 26.3217C31.3454 26.4271 31.7673 26.1793 31.8426 25.7616C31.9435 25.2017 32 24.6233 32 24.0282C32 18.4896 27.5168 14 21.9859 14C16.4702 14 12 18.4765 12 24C12 29.5235 16.4702 34 21.9859 34C23.9698 34 25.7985 33.4025 27.3423 32.4101C27.6991 32.1807 27.7662 31.6966 27.5118 31.3572C27.2568 31.0171 26.776 30.9517 26.4155 31.1769C25.1223 31.9848 23.6129 32.4615 21.9859 32.4615C17.3187 32.4615 13.5363 28.6738 13.5363 24C13.5363 19.3262 17.3187 15.5385 21.9859 15.5385Z" fill="white"/>
<path opacity="1" d="M20.635 27V21.664H19.643L17.963 23.352L18.611 24.032L19.491 23.128V27H20.635ZM21.4361 24.336C21.4361 25.712 22.1161 27.096 23.6441 27.096C25.1641 27.096 25.8521 25.712 25.8521 24.336C25.8521 22.96 25.1641 21.584 23.6441 21.584C22.1161 21.584 21.4361 22.96 21.4361 24.336ZM24.6921 24.336C24.6921 25.32 24.4041 26.088 23.6441 26.088C22.8761 26.088 22.5881 25.32 22.5881 24.336C22.5881 23.352 22.8761 22.592 23.6441 22.592C24.4041 22.592 24.6921 23.352 24.6921 24.336Z" fill="white"/>
</svg>
